<svg version="1.1" xmlns="http://www.w3.org/2000/svg" xmlns:xlink="http://www.w3.org/1999/xlink" x="0px" y="0px"
	 viewBox="0 0 1200 1200" style="enable-background:new 0 0 1200 1200;" xml:space="preserve">
<path d="M325.4,1154.7l6.5,2.2l14.1-29.2l16.2-47.6l24.9,6.5l33.5,64.9v10.8l-29.2,20.5l29.2,3.2l56.2-27
	l-3.2-82.2l-27-19.5l-21.6-21.6l4.3-43.3l113.5-16.2l277.9-31.4l72.4-6.5l60.6,1.1l-5.4-23.8l-16.2-8.6l-9.7-11.9l10.8-28.1
	l-4.3-56.2l-17.3-48.7l8.7-55.1l18.4-51.9l-2.2-18.4l-19.5-7.6l-5.4-38.9l-29.2-36.8l-21.6-70.3l-15.1-72.4L826,356.7l-41.1-173
	l-37.8-85.4l-8.6-60.6l1.1-23.8l-97.3,8.6l-253,23.8L257.2,55l-2.2,69.2l2.2,180.6L249.7,640l-3.2,152.5l30.3,203.3l17.3,158.9
	L325.4,1154.7z">
<title>Alabama</title>
</path>
</svg>
