<svg version="1.1" xmlns="http://www.w3.org/2000/svg" xmlns:xlink="http://www.w3.org/1999/xlink" x="0px" y="0px"
	 viewBox="0 0 1200 1200" style="enable-background:new 0 0 1200 1200;" xml:space="preserve">
<path d="M863.9,280.3l-1.7,474.9l8.9,5.6l17.2,1.1l8.3-6.1h14.5l1.1,16.1l38.9,37.8l2.8,14.5l18.9-10.6l3.3-1.1
	l1.7-17.2l8.3-8.9l6.1-1.1l10.6-8.3l17.2,11.7l3.3,16.1l10.6,6.1l6.1,13.3l21.7,10l18.9,33.4l15,21.7l12.8,15l8.3,20.6l27.8,10
	l28.9,11.7l5.6,24.5l2.8,17.2l-5.6,18.9l-10,12.8l-8.9-4.4l-8.3-17.2l-15-8.3l-10-6.1l-4.4,4.4l8.3,15l1.1,20.6l-6.1,2.8l-10.6-10.6
	l-11.7-7.2l2.8,8.9l7.2,10l-4.4,4.4c0,0-4.4-1.7-7.2-5.6c-2.8-3.3-11.7-18.9-11.7-18.9l-5.6-12.8c0,0-1.7,7.2-5.6,5.6
	c-3.3-1.7-7.2-8.3-7.2-8.3l10-10.6l-8.3-8.3v-27.8h-4.4l-4.4,18.9l-6.1,2.8l-5.6-20.6l-3.3-20.6l-4.4-2.8l1.7,31.7v6.1l-8.3-7.2
	l-20-33.4l-11.7-2.8l-3.3-20.6l-8.9-16.1l-8.9-6.1v-12.8l11.7-7.2l-2.8-1.7l-14.5,3.3L958.4,843l-14.5-16.1l-26.7-14.5L895,798
	l7.2-17.8v-8.9l-10,8.9l-16.1,6.1l-20.6-6.1l-31.7-13.3h-30.6l-3.3,2.8l-36.1-21.7l-11.7-1.7l-15-32.3l-20,1.7l-20,8.3l2.8,25
	l6.1-16.1l5.6,1.7l-8.3,24.5l17.8-15l3.3,8.9l-21.7,24.5l-7.2-1.7l-2.8-10.6l-7.2-4.4l-7.2,6.1l-15-10l-17.2,11.7l-10,11.7
	L607,791.8l-26.1-1.1l-2.8-11.7l20.6-3.3v-7.2l-12.8-3.3l5.6-13.3l12.8-21.7v-10l1.1-4.4l24.5-12.8l5.6,7.2h15l-7.2-14.5l-20.6-1.7
	l-27.8,15l-13.3,18.9l-10,14.5l-6.1,12.8l-23.4,8.3l-17.2,14.5l-1.7,8.9l12.8,5.6l4.4,11.7l-15,17.8l-36.1,23.4l-43.4,23.4
	l-11.7,6.1l-29.5,6.1l-29.5,12.8l10,7.2l-8.3,8.3l-2.8,6.1l-15-5.6l-17.8,1.1l-4.4,12.8h-5.6l1.7-13.3l-20,7.2l-16.1,5.6l-18.9-7.2
	l-16.1,10.6h-17.8l-11.7,7.2l-8.9,4.4l-11.7-1.7l-14.5-6.1l-12.8,3.3l-5.6,5.6l-8.9-6.1v-10.6l17.2-7.2l35,3.3l24.5-8.9l11.7-11.7
	l16.1-3.3l10-4.4l15,1.1l8.9,7.2l5.6-1.7l12.8-15l17.2-5.6l18.9-3.3l7.2-1.7l3.3,2.8h4.4l7.2-20.6l22.2-8.3l10.6-20.6l12.8-25
	l8.9-8.3l1.7-14.5l-8.9,7.2l-18.9,3.3l-3.3-13.3l-7.2-1.7l-5.6,5.6l-1.1,16.1l-8.3-1.1l-8.3-32.3l-7.2,7.2l-6.1-2.8l-1.7-10.6
	l-22.2,1.1l-11.7,6.1l-14.5-1.7l8.3-8.3l2.8-14.5l-3.3-10.6l8.3-5.6l7.2-1.1l-3.3-10v-24.5l-5.6-5.6l-4.4,8.3h-33.9l-8.3-7.2
	l-3.3-21.7l-11.7-20v-5.6l11.7-4.4l1.1-11.7l6.1-6.1l-4.4-2.8l-7.2,2.8l-6.1-15l5.6-27.8l25-17.8l14.5-8.9l10.6-20.6l15-7.2
	l14.5,6.1l1.7,13.3l13.3-1.7l17.8-13.3l8.9,3.3l5.6,3.3h8.9l12.8-7.2l4.4-24.5c0,0,1.7-16.1,5.6-18.9c3.3-2.8,5.6-5.6,5.6-5.6
	l-6.1-10.6l-14.5,4.4l-17.8,4.4l-10.6-2.8l-20-10l-27.8-1.1l-20-20.6l2.8-21.7l3.3-13.3l-11.7-10l-10.6-20.6l2.8-4.4l37.8-2.8h11.7
	l5.6,5.6h3.3l-1.1-8.9l21.7-3.3l14.5,1.7l8.3,6.1l-8.3,11.7l-2.8,8.3l15,8.9l27.8,10l10-5.6l-12.8-24.5l-5.6-17.8l5.6-4.4
	l-18.9-10.6l-2.8-6.1l2.8-8.9l-4.4-21.7l-16.1-26.1l-13.3-23.4l16.1-10.6h17.8l10,3.3l23.4-1.1l20.6-20l6.1-17.2l20.6-13.3l8.9,5.6
	l15-3.3l20.6-11.7l6.1-1.1l5.6,4.4l25-1.1l15-17.2h6.1l20,13.3l10.6,11.7l-2.8,6.1l3.3,6.1l8.9-8.9l21.7,1.7l1.7,20.6l10.6,8.3
	l39.5,3.3l35,23.4l8.3-5.6l28.9,14.5l11.7-3.3l10.6-4.4l26.7,10.6L863.9,280.3z M223.8,441l11.7,29.5l-1.1,5.6l-16.1-1.7l-10-22.2
	l-10-8.3h-13.3l-1.1-14.5l10-13.3l6.1,13.3l8.3,8.3L223.8,441z M209.3,627.2l20.6,4.4l20.6,5.6l4.4,5.6l-8.9,20.6l-17.2-1.1
	l-18.9-20L209.3,627.2z M94.2,548.8l6.1,14.5l6.1,8.9l-6.1,4.4l-11.7-17.2v-10.6H94.2z M18.1,955.3L37,942.5l18.9-5.6l14.5,1.7
	l2.8,8.9l10.6,2.8l10.6-10.6l-1.7-8.9l15-3.3l16.1,14.5l-6.1,10l-24.5,6.1l-15-2.8l-20.6-6.1l-24.5,8.3l-8.9,1.7L18.1,955.3z
	 M290,930.3l8.9,10.6l11.7-8.9l-8.3-7.2L290,930.3z M306.1,947l6.1-12.8l11.7,1.7l-4.4,10.6h-13.3V947z M437.3,936.4l8.3,10l5.6-6.1
	l-4.4-10.6L437.3,936.4z M486.3,866.9l6.1,32.3l16.1,4.4l27.8-16.1l24.5-14.5l-8.9-13.3l2.8-13.3l-11.7,7.2l-16.1-4.4l8.9-6.1
	l10.6,4.4l21.7-10l2.8-8.3l-13.3-4.4l4.4-10.6l-15,10.6l-26.1,20l-26.7,16.1L486.3,866.9z M721.5,756.8l13.3-8.3l-5.6-10l-10,5.6
	L721.5,756.8z">
<title>Alaska</title>
</path>
</svg>
