<svg version="1.1" xmlns="http://www.w3.org/2000/svg" xmlns:xlink="http://www.w3.org/1999/xlink" x="0px" y="0px"
	 viewBox="0 0 1200 1200" style="enable-background:new 0 0 1200 1200;" xml:space="preserve">
<path d="M236.5,752.5l-1.9,9.3l3.1,6.2l116.9,66.2l74.9,47l90.9,53.2l103.9,61.9l76.1,14.8l157.1,16.7l37.1-245l43.3-328.5
	l27.2-191.8l-152.2-22.3l-375.5-68.1l-1.2,6.8l-16.1,102.1l-13,23.5l-17.3-1.2l-7.4-16.1l-16.1-2.5L359,278l-6.8,0.6l-13,10.5
	l-1.9,42.1l-1.9,9.3l-3.1,77.3l-9.3,14.8l-2.5,20.4L338,484l6.8,34l4.3,6.8l6.8,5.6l-2.5,14.8l-10.5,7.4l-21,9.9l-9.9,11.1
	l-9.9,22.3l-3.1,30.3l-18.6,17.9l-11.8,5.6l-0.6,35.9l-3.7,9.9l3.1,4.9l24.1,2.5l-5.6,18.6l-10.5,14.8l-22.9,2.5L236.5,752.5z"/>
</svg>
