<svg version="1.1" xmlns="http://www.w3.org/2000/svg" xmlns:xlink="http://www.w3.org/1999/xlink" x="0px" y="0px"
	 viewBox="0 0 1200 1200" style="enable-background:new 0 0 1200 1200;" xml:space="preserve">
<path d="M1116.3,237.9l-84-9.2l11.8-40.7l40.7-34.1l7.9-30.2l-23.6-38l-418.5,15.7l-305.7,9.2l-309.6,3.9
	l19.7,90.5l1.3,111.5l18.4,143l3.9,501.2l27.6,21l39.4-15.7l38,15.7l5.2,132.5l330.6-2.6l351.6-10.5l11.8-24.9l-3.9-49.9l-22.3-40.7
	l19.7-18.4l-18.4-28.9L867,907l14.4-77.4l35.4-30.2l-10.5-28.9l52.5-73.5l32.8-14.4l-1.3-22.3l-6.6-22.3l38-76.1l32.8-14.4l2.6-43.3
	l27.6-18.4l11.8-53.8l-18.4-52.5l55.1-31.5l3.9-27.6l15.7-55.1l11.8-40.7L1116.3,237.9z">
<title>Arkansas</title>
</path>
</svg>
