<svg version="1.1" xmlns="http://www.w3.org/2000/svg" xmlns:xlink="http://www.w3.org/1999/xlink" x="0px" y="0px"
	 viewBox="0 0 1200 1200" style="enable-background:new 0 0 1200 1200;" xml:space="preserve">
<path d="M775.1,1130l-88.2-12.1l-44.7-6.8l-2.2-8v-42.1l-1.4-14.3l-11.7-18.7l-3.6-10.2L605.7,999l-12.9-21.1l-12.1-0.9l-14.3-3.6
	l-1.4-4.4l6.8-2.7l-2.7-14.3l-6.8-9.4l-21.6-3.6l-17.5-9.4l-4.9-10.2l-11.7-21.6l-12.9-13.9h-12.9l-17.5-9.4l-20.2-8l-18.7-2.2
	l-10.7-12.1l2.2-8.5l8-31.8l3.6-8.5v-10.7l-7.2-4.4l-2.2-12.9l-6.8-11.7l-15.3-26l-5.8-13.9l-6.8-21.1l-7.2-23.8L362,659l-2.2-12.9
	l3.6-17.5h4.9l9.4-7.2l4.9-16.1l-4.4-12.1l-12.1-2.2l-8.5-11.7l-9.4-16.5l-0.9-36.7l2.7-8.5l2.7-10.2l2.2-10.7l-25.5-28.2V459
	l1.4-2.2l1.4-14.3l-5.8-18L316,402.9l-12.1-20.2l-8-17.5l4.4-16.5l2.7-26l8-13.9l1.4-29.1l-4.9-16.1l-7.2-18.7l-12.1-18.7l3.6-14.3
	l6.8-18.7l8-3.6l1.4-4.9l13.9-11.7l23.3-52.9L346,87l7.6-21.9L526.8,118l114.7,29.6l-35.9,140.2L566.7,436l56.5,86L812.1,801
	l76.5,116.9l-1.7,13.9l12.6,23.3l4.9,24.3l4.4,6.8l3.1,2.7l-0.9,6.3l-6.3,4.4l-15.3,7.2l-8.5,9.4l-7.6,17.5l-2.2,21.1l-11.7,11.2
	l-10.2,4.9l-0.5,27.7l-2.7,8.5l4.4,7.6l13.4,1.4l-1.7,7.2l-6.3,9l-17.5,2.7L775.1,1130z M444.2,911l5.8,6.8l-0.9,5.8l-14.3-0.5
	l-2.7-5.4l-2.7-6.8H444.2z M452.7,911l5.4-2.7l16.1,9.4l13.9,5.4l-4.1,2.7l-20.2-0.9l-7.2-7.2L452.7,911z M545.3,999.6l8,10.2
	l3.6,4.4l6.8,2.7l2.7-6.8l-4.4-8l-12.1-9l-4.9,0.9v5.4L545.3,999.6z M539.1,1038.7l8,14.3l5.4,8.5l-6.8,0.9l-5.8-5.4
	c0,0-3.1-6.8-3.1-8.5v-9.9H539.1L539.1,1038.7z">
<title>California</title>
</path>
</svg>
