<svg version="1.1" xmlns="http://www.w3.org/2000/svg" xmlns:xlink="http://www.w3.org/1999/xlink" x="0px" y="0px"
	 viewBox="0 0 1200 1200" style="enable-background:new 0 0 1200 1200;" xml:space="preserve">
<path d="M950.6,986.4l-54.8-6.9l-13.7,15.7l15.7,46l-2.9,38.2l-21.5-5.9l-2-29.4h-50.9l-51.9,6.9l-316.4,18.6l-75.4-2.9L363,1055
	l-24.5-42.1l-7.8-32.3l-15.7-8.8l-4.9-4.9l8.8-21.5l-3.9-53.9l-15.7-44.1l7.8-48l16.7-47l-2-24.5l-18.6-6.9l-3.9-31.3l-27.4-34.3
	l-18.6-60.7l-14.7-68.6l-16.7-47l-37.2-156.7L150.4,244l-7.8-51.9l1-22.5l32.3-2.9l133.2-15.7l182.2-19.6l61.7-10.8l4.9,13.7
	l-21.5,8.8l-8.8,21.5l3.9,19.6l13.7,15.7l42.1,26.4l31.3-1l31.3,46l5.9,15.7l22.5,27.4l4.9,16.7l46,17.6l29.4,21.5l22.5,29.4
	l22.5,12.7l19.6,17.6l13.7,26.4l20.6,18.6l40.2,17.6l26.4,58.8l16.7,50l27.4,6.9l20.6,18.6l19.6,55.8l28.4,15.7l16.7-7.8l3.9,11.8
	l-32.3,60.7l4.9,25.5l-14.7,41.1l-22.5,97.9l7.8,61.7L950.6,986.4z"/>
</svg>
