<svg version="1.1" xmlns="http://www.w3.org/2000/svg" xmlns:xlink="http://www.w3.org/1999/xlink" x="0px" y="0px"
	 viewBox="0 0 1200 1200" style="enable-background:new 0 0 1200 1200;" xml:space="preserve">
<path d="M84,353.2l17.3-32.7l20.9-2.7l2.7,7.3l-19.1,28.2H84z M176.8,319.5l55.5,23.6l19.1-2.7l14.5-35.5
	l-5.5-30.9l-38.2-4.5l-36.4,16.4L176.8,319.5z M455.9,410.4l33.6,50l21.8-2.7l10-4.5L535,465l33.6-1.8l9.1-13.6l-26.4-16.4
	l-17.3-33.6L515,366.8l-52.7,26.4L455.9,410.4z M639.6,491.4l11.8-17.3l42.7,9.1l5.5-4.5l55.5,5.5l-2.7,11.8l-23.6,13.6l-40-2.7
	L639.6,491.4z M687.7,538.6l17.3,35.5l28.2-10l2.7-14.5l-14.5-19.1l-33.6-2.7L687.7,538.6z M751.4,527.7l20.9-26.4l42.7,21.8l40,10
	l40,24.5V575l-32.7,16.4l-43.6,9.1l-21.8-13.6L751.4,527.7z M902.3,669.6l14.5-11.8l30.9,14.5l69.1,32.7l30.9,19.1l14.5,21.8
	l17.3,40l36.4,23.6l-2.7,11.8l-35.5,29.1l-38.2,13.6l-13.6-5.5L997.8,875L976,904.1L955,930.5l-16.4-1.8L905.9,905l-2.7-40.9
	l5.5-21.8l-14.5-51.8L875,774.1l-1.8-23.6l20.9-9.1l19.1-28.2l4.5-9.1l-14.5-16.4L902.3,669.6z">
<title>Hawaii</title>
</path>
</svg>
