<svg version="1.1" xmlns="http://www.w3.org/2000/svg" xmlns:xlink="http://www.w3.org/1999/xlink" x="0px" y="0px"
	 viewBox="0 0 1200 1200" style="enable-background:new 0 0 1200 1200;" xml:space="preserve">
<path d="M480.5,36.3l-32.3,117.2l-30.3,140.4L395,403.1l-2.7,65.1l8.1,29.9L424,516l-1.3,26.3L396.4,572
	l-30.3,44.4l-6.1,19.5l-8.1,7.4l-12.1,5.4l-28.9,35.7l-2.7,20.9l-2.7,7.4l4,6.7l17.5-0.7l7.4,15.5l-16.2,39l-8.1,28.3l-59.2,237.6
	l139.4,30.3l265.9,53.2l234.3,41.1l33-196.6l25.6-162.2l-18.2-16.2l-2.7-17.5l-5.4-7.4l-14.1,6.7l-4.7,17.5l-21.5,3.4l-26.3-10.8
	l-25.6,0.7l-16.8,4.7l-22.9-10.1l-16.2,1.3l-16.2,13.5l-13.5-7.4l-4.7-26.9l4.7-19.5l-16.8-19.5L706,699.9l-18.2-88.2l-0.7-31.6
	l-2-0.7l-1.3,2.7l-34.3,23.6l-11.4-1.3l-19.5-22.9l-1.3-20.9l47.1-115.3l-2.7-13.1l-22.9-7.7l-4-7.9l-17.5-23.3l-31-68.9L564.7,314
	l-13.5-33.3l8.8-31.2l-21.5-51L568,53.6L480.5,36.3z">
<title>Idaho</title>
</path>
</svg>
