<svg version="1.1" xmlns="http://www.w3.org/2000/svg" xmlns:xlink="http://www.w3.org/1999/xlink" x="0px" y="0px"
	 viewBox="0 0 1200 1200" style="enable-background:new 0 0 1200 1200;" xml:space="preserve">
<path d="M850.7,196.4l-7.1-23l-11.5-32.8L818,124.7l-13.3-23l-3.5-48.7L660.2,68.8l-154.2,8.9h-109l1.8,18.6
	l19.5,8l9.7,12.4l3.5,12.4l34.6,30.1l6.2,21.3l-6.2,29.2l-15.1,32.8l-7.1,23.9l-21.3,16.8l-16.8,5.3l-46.1,11.5l-11.5,36.3l5.3,9.7
	l16.8,15.9l-1.8,38.1l-18.6,14.2l-4.4,11.5v24.8l-15.9,5.3l-12.4,10.6l-3.5,10.6l3.5,17.7l-14.2,11.5l-8,24.8l2.7,34.6l20.4,62
	l62,67.3l50.5,32.8v39l6.2,10.6l58.5,5.3l23.9,12.4l-6.2,31l-19.5,54.9l-7.1,26.6l17.7,32.8l56.7,47l42.5,7.1l19.5,45.2l17.7,30.1
	l-8,24.8l13.3,33.7l15.1,18.6l14.2-2.7l8.9-19.5l21.3-15.1l24.8-8.9l54,22.1l4.4-1.8v-9.7l-10.6-23.9l3.5-24.8l21.3-14.2l30.1-10.6
	l-4.4-11.5l-7.1-17.7l10.6-11.5l8.9-23.9V938l3.5-43.4l22.1-26.6l15.9-33.7l22.1-35.4l-4.4-47l-15.9-28.4l-2.7-29.2l7.1-47
	l-6.2-63.8l-9.7-140l-12.4-135.6l-8-103.7L850.7,196.4z">
<title>Illinois</title>
</path>
</svg>
