<svg version="1.1" xmlns="http://www.w3.org/2000/svg" xmlns:xlink="http://www.w3.org/1999/xlink" x="0px" y="0px"
	 viewBox="0 0 1200 1200" style="enable-background:new 0 0 1200 1200;" xml:space="preserve">
<path d="M340.6,124.6l18.1,12.1l13.3-3.6l25.3-22.9l30.2-21.7L600,75.1l222-21.7l19.3,187l59.1,514.1l-7.2,35
	l15.7,19.3l2.4,15.7l-27.8,19.3l-43.4,20.5l-38.6,4.8l-6,57.9l-56.7,43.4l-35,48.3l2.4,29l-6,16.9h-42.2l-16.9-20.5l-62.7,36.2
	l2.4,37.4l-10.9,2.4l-6-10.9l-29-20.5l-43.4,18.1l-16.9,35l-14.5-7.2l-19.3-21.7l-53.1,6l-68.8,12.1l-30.2,15.7v-31.4l4.8-56.7
	l27.8-35l21.7-47.1l32.6-50.7l-6-70l-21.7-37.4l-3.6-38.6l9.7-64l-8.4-85.7l-10.9-152l-30.2-363.2L340.6,124.6z">
<title>Indiana</title>
</path>
</svg>
