<svg version="1.1" xmlns="http://www.w3.org/2000/svg" xmlns:xlink="http://www.w3.org/1999/xlink" x="0px" y="0px"
	 viewBox="0 0 640 651.5" style="enable-background:new 0 0 640 651.5;" xml:space="preserve">
<path d="M516.9,145.8l12.3,12.3l1.8,4.1l-11.7,17.5l1.8,23.3l15.2,23.9l18.1,9.3l14,1.8l5.3,10.5l1.2,14
	l14.6,5.8l5.3,6.4l2.9,9.3l22.2,19.3l3.5,11.1l-4.1,17.5l-9.9,21.6l-3.5,14l-12.3,9.3l-9.3,2.9l-33.3,8.8l-9.3,28l4.7,10.5l9.9,8.8
	l-1.2,20.4l-11.1,8.2l-4.1,10.5v14l-8.2,2.3l-9.9,8.2l-2.9,9.9l2.3,9.9l-7.6,5.8L500,509.2l-8.2-16.3l-48.4,4.7l-58.3,3.5l-287,7
	L88.7,483l-2.3-39.1l-8.2-24.5L74.1,389l-12.8-21.6l-5.8-26.8l-15.8-45.5l-6.4-32.7l-8.2-11.1l-7.6-16.9l9.9-22.2l7-35.6l-15.8-12.8
	l-1.8-14l4.1-14l10.5-1.8l356.4-3.5l123.7-4.1L516.9,145.8z">
<title>Iowa</title>
</path>
</svg>
