<svg version="1.1" xmlns="http://www.w3.org/2000/svg" xmlns:xlink="http://www.w3.org/1999/xlink" x="0px" y="0px"
	 viewBox="0 0 1200 1200" style="enable-background:new 0 0 1200 1200;" xml:space="preserve">
<path d="M131.2,889.8l114.5-6.4l0.9-37.2h39.1l276.2-29.1l409.7-39.1l50.9-32.7l35.4-19.1l0.9-17.3l54.5-70.9
	l37.2-32.7l19.1-21.8l-30-18.2l-22.7-24.5l-27.3-34.5l-4.5-20l-23.6-12.7l-8.2-17.3l-1.8-55.4l-23.6-18.2l-17.3-10l-4.5-20.9
	l-11.8,1.8l-18.2,10.9l-22.7,24.5l-17.3-15.4l-22.7-4.5L891.6,382h-20.9l-16.4-18.2l-50.9-0.9L787.2,322l-26.3-13.6l-19.1,7.3
	l-38.2,1.8l-4.5,19.1l10.9,13.6l2.7,19.1l-25.4,18.2l-34.5,16.4l-23.6,3.6l-4.5,40.9L580,481l-23.6,33.6l1.8,20l-8.2,20.9l-40.9-0.9
	l-11.8-11.8l-35.4,20l1.8,30l-21.8,5.5l-7.3-12.7l-15.4-10.9l-24.5,10l-16.4,31.8l-20-9.1l-12.7-14.5l-33.6,3.6l-50.9,9.1
	l-25.4,11.8l-10.9,30.9l-9.1,9.1l13.6,33.6l-38.2,12.7l-17.3,12.7l-3.6,20l10.9,21.8v20l-14.5,3.6L111.2,759l-20.9,8.2l-18.2,12.7
	l-7.3,16.4L80.3,818l-8.2,16.4l-0.9,30l-21.8,11.8l-19.1,15.4L131.2,889.8z">
<title>Kentucky</title>
</path>
</svg>
