<svg version="1.1" xmlns="http://www.w3.org/2000/svg" xmlns:xlink="http://www.w3.org/1999/xlink" x="0px" y="0px"
	 viewBox="0 0 1200 1200" style="enable-background:new 0 0 1200 1200;" xml:space="preserve">
<path d="M145.1,945.8l94.5-3.5l120.1,42l75.8,12.8l43.2-17.5l37.3,12.8l37.3,11.7l9.3-24.5l-37.3-12.8
	l-30.3,5.8L463.5,954l9.3-17.5l36.2-11.7l21,17.5l21-11.7l37.3,7l17.5,28l3.5,26.8l52.5,3.5l21,21l-9.3,18.7l-15.2,9.3l18.7,18.7
	l98,42l42-15.2l11.7-28l30.3-7l21-17.5l15.2,11.7l9.3,33.8l-26.8,9.3l7,7l39.7-15.2l26.8-39.7l9.3-5.8l-24.5-3.5l9.3-18.7l-2.3-17.5
	l24.5-5.8l12.8-15.2l7,9.3l7,36.2l49,7l46.7,22.2l11.7,17.5h33.8l12.8,11.7l26.8-36.2v-17.5h-15.2l-39.7-31.5l-67.6-9.3l-37.3-26.8
	l12.8-31.5l26.8,3.5l2.3-7l-21-11.7v-5.8h37.3l21-36.2l-15.2-22.2l-3.5-31.5l-17.5,2.3l-22.2,24.5l-7,30.3l-36.2-7l-11.7-21l21-22.2
	l22.2-19.8L998.9,730l-39.7-39.7l11.7-85.1l-2.3-5.8l-15.2,2.3l-386,16.3l-9.3-28l9.3-99.1l100.3-172.6L657.1,288l16.3-4.7l4.7-23.3
	l-25.7-23.3l1.2-22.2l-23.3-52.5l-4.7-59.5l1.2-8.2l-307.9,9.3L25,104.9L29.7,218l8.2,110.8l5.8,43.2L74,424.5l10.5,51.3l50.2,70
	l3.5,36.2l7,9.3l-8.2,96.8l-32.7,53.6l14,28l-5.8,30.3l-9.3,85.1l-15.2,35l2.3,43.2L145.1,945.8z">
<title>Louisiana</title>
</path>
</svg>
