<svg version="1.1" xmlns="http://www.w3.org/2000/svg" xmlns:xlink="http://www.w3.org/1999/xlink" x="0px" y="0px"
	 viewBox="0 0 1200 1200" style="enable-background:new 0 0 1200 1200;" xml:space="preserve">
<path d="M286.3,651l15.6,4.2v-27.1l8.3-57.2l27.1-48.9l15.6-41.6l-19.8-25v-62.4l8.3-10.4l8.3-28.1l-2.1-15.6
	l-2.1-49.9l18.7-49.9l30.2-92.6l21.9-43.7h13.5l13.5,2.1v11.4l13.5,23.9l28.1,6.2l8.3-8.3v-10.4L535,97.4l18.7-18.7l15.6,2.1
	l62.4,25l19.8,10.4l94.7,311.1h62.4l8.3,19.8L819,497l30.2,23.9h8.3l2.1-5.2l-5.2-11.4l29.1-5.2l19.8,21.9l23.9,38.5v19.8
	l-21.9,48.9l-19.8,6.2l-35.4,32.3l-49.9,57.2h-13.5c-6.2,0-10.4-21.9-10.4-21.9l-18.7,2.1l-10.4,15.6l-25,15.6l-10.4,15.6l16.6,15.6
	l-5.2,6.2l-5.2,28.1l-19.8-2.1v-16.6l-3.1-13.5l-15.6,3.1l-18.7-33.3L639,751.9l13.5,15.6l3.1,11.4l-8.3,13.5l3.1,32.3l2.1,16.6
	l-16.6,27.1l-30.2,5.2l-3.1,30.2l-55.1,32.3l-13.5,5.2l-16.6-15.6L485,963.1l10.4,33.3l-15.6,13.5l-2.1,45.8l-11.4,65.6l-22.9-9.4
	l-5.2-32.3l-41.6-11.4l-2.1-26L272.8,652.8L286.3,651z M666.1,813.3l15.6-15.6l14.6,11.4l6.2,25l-17.7,9.4L666.1,813.3z
	 M735.8,751.9l18.7,19.8c0,0,13.5,1,13.5-2.1c0-3.1,2.1-20.8,2.1-20.8l9.4-8.3l-8.3-18.7l-20.8,7.3L735.8,751.9z">
<title>Maine</title>
</path>
</svg>
