<svg version="1.1" xmlns="http://www.w3.org/2000/svg" xmlns:xlink="http://www.w3.org/1999/xlink" x="0px" y="0px"
	 viewBox="0 0 1200 1200" style="enable-background:new 0 0 1200 1200;" xml:space="preserve">
<path  d="M1133.6,796.8l24.2-54l7.1-68.2l-89.5,15.6l-82.4,4.3l-54-238.7l-32.7-78.2l-21.3-65.4l-315.5,61.1
	l-534.3,108l28.4,147.8l68.2-69.6l35.5-9.9l19.9-21.3l25.6-38.4l22.7,9.9l36.9-2.8l36.9-29.8l28.4-21.3l29.8-8.5l21.3,15.6
	l38.4,19.9l27,25.6l18.5,19.9L541,541l-8.5,41.2l82.4,29.8l29.8-36.9l52.6,35.5l-29.8,46.9l-9.9,46.9L632,741.4v29.8l4.3,11.4
	l28.4,18.5l48.3,15.6l61.1-1.4l44,14.2l29.8,4.3l14.2-29.8l-21.3-29.8v-25.6l-34.1-29.8l-29.8-78.2l18.5-75.3l-2.8-29.8l-18.5-18.5
	c0,0,21.3-22.7,21.3-32.7c0-8.5,7.1-29.8,7.1-29.8l27-18.5l27-22.7l7.1,14.2l-21.3,22.7l-18.5,52.6l4.3,15.6l25.6,4.3l7.1,78.2
	l-29.8,14.2l4.3,51.2l7.1-2.8l15.6-27l22.7,25.6l-22.7,18.5l-4.3,48.3l36.9,48.3L946,784l22.7-11.4l45.5,59.7l14.2,5.7L1133.6,796.8
	z M927.5,799.6l15.6,35.5l2.8,25.6l15.6,27c0,0,12.8-12.8,12.8-17.1c0-4.3-9.9-44.1-9.9-44.1l-9.9-32.7L927.5,799.6z">
<title>Maryland</title>
</path>
</svg>
