<svg version="1.1" xmlns="http://www.w3.org/2000/svg" xmlns:xlink="http://www.w3.org/1999/xlink" x="0px" y="0px"
	 viewBox="0 0 1200 1200" style="enable-background:new 0 0 1200 1200;" xml:space="preserve">
<path d="M842.7,836.4l-9-41.2l14.3-26.9l51.9-26.9l14.3,55.5l-9,32.2l-43,26.9v17.9l34-26.9l69.9-80.6l69.9-34
	l75.2-26.9l-5.4-43l-17.9-51.9l-34-43l-32.2-14.3l-37.6,3.6l-9,9l17.9,23.3l26.9-14.3l37.6,28.7l14.3,48.4l-32.2,32.2l-41.2,17.9
	l-64.5-9l-69.9-107.5L823,539.1h-32.2l-19.7,14.3l-34-46.6l5.4-26.9l43-93.1L733.4,308l-66.3,32.2l-32.2,51.9l-327.8,84.2
	L59.9,521.2L49.2,711.1l12.5,87.8l394.1-86l200.6-50.2l35.8,28.7l60.9,77l51.9,84.2L842.7,836.4z M1066.6,861.5L1106,849l9-30.5
	l17.9,1.8l17.9,41.2l-23.3,9l-69.9,1.8L1066.6,861.5z M898.2,875.9l41.2-46.6h28.7l32.2,26.9l-43,17.9L917.9,892L898.2,875.9z">
<title>Massachusetts</title>
</path>
</svg>
