<svg version="1.1" xmlns="http://www.w3.org/2000/svg" xmlns:xlink="http://www.w3.org/1999/xlink" x="0px" y="0px"
	 viewBox="0 0 1200 1200" style="enable-background:new 0 0 1200 1200;" xml:space="preserve">
<path d="M694.4,1150.3l155.4-15.5l1.6,8.9l80.5-12.2l97.6-13.8l0.8-4.9l1.6-12.2l17.1-30.1l16.3-13.8l-1.6-41.5
	l13-13l8.9-2.4l1.6-29.3l12.2-24.4l8.9,4.9l1.6,4.9l6.5,1.6l15.5-8.1l-3.3-74l-26-66.7l-18.7-74l-19.5-26l-21.1-14.6l-13,8.9
	l-31.7,14.6l-15.5,40.7l-22,30.1l-8.9,4.9l-12.2-4.9c0,0-21.1-12.2-19.5-17.1c1.6-4.9,4.1-40.7,4.1-40.7l27.7-10.6l6.5-27.7
	l4.9-21.1l19.5-13l-2.4-81.3l-13-18.7l-10.6-6.5l-6.5-17.1l6.5-6.5l13,2.4l1.6-13l-21.1-17.9L940,478.4h-21.1l-36.6-12.2l-44.7-27.7
	h-22l-4.9,4.9l-8.1-4.1l-25.2-18.7l-23.6,14.6L730.2,454l2.4,29.3l8.1,2.4l17.1,4.1l4.1,6.5l-21.1,6.5l-21.1,2.4l-12.2,14.6
	l-2.4,17.1l2.4,13l2.4,44.7l-29.3,17.1l-4.9-1.6V576l10.6-19.5l4.9-19.5l-6.5-6.5l-15.5,6.5l-8.1,34.2l-22,8.9l-14.6,15.5l-1.6,8.1
	l4.9,6.5l-4.9,21.1l-18.7,4.1v8.9l6.5,19.5l-8.9,49.6l-13,32.5l4.9,38.2l4.1,8.9l-6.5,19.5l-2.4,6.5l-2.4,22l29.3,48.8l23.6,52.9
	l12.2,39l-6.5,38.2l-8.1,48.8l-19.5,42.3l-2.4,22l-26,25.2L694.4,1150.3z M423.5,561.4l-10.6-8.9l-14.6-84.6l-30.1-10.6l-13.8-18.7
	l-102.5-22.8l-22.8-8.9l-65.9-17.9l-63.4-8.1L68,337.7l5.7-4.1l22-6.5l29.3-18.7v-8.1l4.9-4.9l48.8-8.1l19.5-15.5l35.8-17.1
	l1.6-10.6l15.5-23.6l14.6-6.5l10.6-14.6l18.7-18.7l35.8-19.5l38.2-4.1l8.9,8.9l-2.4,8.1l-30.1,8.1l-12.2,25.2l-18.7,6.5l-4.1,19.5
	l-19.5,26l-2.4,21.1l6.5,4.1l8.1-8.9l29.3-23.6l10.6,10.6h18.7l26,8.1l12.2,8.9l12.2,25.2l22,22l31.7-1.6l12.2-8.1l13,10.6l13,4.1
	l10.6-6.5h8.9l13-8.1l32.5-29.3l27.7-8.9l53.7-2.4l36.6-15.5l21.1-10.6l12.2,1.6v46.4l4.1,2.4l23.6,6.5l15.5-4.1l49.6-13l8.9-8.9
	l12.2,4.1v56.9l26,25.2l10.6,4.9l10.6,8.1l-10.6,2.4l-6.5-2.4l-30.1-4.1l-17.1,4.9l-18.7-1.6l-26,12.2h-14.6l-47.2-10.6l-42.3,1.6
	l-15.5,21.1l-56.9,4.9l-19.5,6.5l-8.9,25.2l-10.6,8.9l-4.1-1.6l-12.2-13L504,454.8h-4.9l-8.9-13l-6.5,1.6l-15.5,35.8l-8.1,32.5
	l-26,56.1L423.5,561.4z M182.7,101.8l14.6-17.1l17.9-6.5l43.9-31.7l18.7-4.9l4.1,4.1l-41.5,41.5l-26.8,15.5l-17.1,7.3L182.7,101.8z
	 M883.9,362.9l4.9,20.3l26,1.6l10.6-9.8c0,0-0.8-12.2-3.3-13c-2.4-1.6-13-15.5-13-15.5l-17.9,1.6l-13,1.6l-2.4,8.9L883.9,362.9z">
</path>
</svg>
