<svg version="1.1" xmlns="http://www.w3.org/2000/svg" xmlns:xlink="http://www.w3.org/1999/xlink" x="0px" y="0px"
	 viewBox="0 0 1200 1200" style="enable-background:new 0 0 1200 1200;" xml:space="preserve">
<path d="M177.3,219.2l-4.6,29.8v78.3l12.2,38.3l14.5,25.3l3.8,75.7L217,569.1l13.7,55.6l3,48.8V714l-12.2,13.7
	l-13.7,9.9V749l6.9,13l31.3,26.7l5.3,24.4v273.6l459.6-4.6l161.6-5.3l-3.8-45.7l-13.7-16L800.1,980l-27.4-40.4l-25.9-6.9l-15.2-21.3
	h-24.4l-26.7-29l-3.8-53.4l0.8-29.7l11.4-22.9l-5.3-20.6l-21.3-23.6l16.8-46.5l41.2-30.5l9.1-10.7l-1.5-61l1.5-22.9l19.8-22.9
	l29-22.1l9.9-1.5l34.3-38.1l13.7-6.1l17.5-29.7l18.3-27.4l23.6-19.8l36.6-15.2l70.1-31.3l29.7-13.7l4.6-17.5l-33.5,3l-5.3,8.4h-4.6
	l-13.7-23.6l-67.8,2.3l-7.6,6.1h-7.6l-3.8-9.9l-6.1-13.7l-19.8,3.8L842,316.1l-12.2,6.1h-23.6l-19.8-7.6v-16l-9.9-1.5l-3.8,3.8
	l-19.8-9.9l-3.8-22.1l-11.4,3.8l-3.8,7.6l-18.3-3.8l-40.4-18.3l-29.7-19.8h-22.1l-9.9-7.6l-17.5,4.6l-8.4,8.4l-2.3,9.9h-36.6v-16
	l-48-2.3l-2.3-11.4h-36.6l-12.2-12.2L438,165.1l-6.1-41.9l-14.5-6.1l-17.5-3.8l-4.6,1.5l-2.3,62.5l-229.4-0.2L177.3,219.2z">
<title>Minnesota</title>
</path>
</svg>
