<svg version="1.1" xmlns="http://www.w3.org/2000/svg" xmlns:xlink="http://www.w3.org/1999/xlink" x="0px" y="0px"
	 viewBox="0 0 1200 1200" style="enable-background:new 0 0 1200 1200;" xml:space="preserve">
<path d="M1073.6,1016.1l4.7-55.7l39.6-32.1l17.9-9.4v-27.4l6.6-15.1l-10.4-15.1l-22.6,2.8l-19.8-23.6l-16-42.5
	l8.5-24.5l-18.9-30.2l-17-43.4l-43.4-6.6l-64.2-52.8L918,600.9l7.5-31.1l20.8-56.6l5.7-28.3l-17.9-9.4l-65.1-5.7l-10.4-17.9v-38.7
	l-50-33l-67.9-73.6l-21.7-68.9l-4.7-39.6l6.6-22.6l-24.5-29.2l-11.3-22.6l-72.6,7.5l-94.3,5.7L57.5,148.1l12.3,24.5l-0.9,20.8
	l21.7,34l28.3,36.8l29.2,28.3l24.5,1.9l13.2,10.4V332l-17,15.1l-4.7,21.7l19.8,30.2l22.6,28.3l24.5,19.8l12.3,109.4L235.8,934
	l4.7,53.8l223.6-1.9l219.8-6.6L990.6,967l20.8,34.9l-7.5,29.2l-29.2,23.6l-4.7,17l49.1,4.7l38.7-10.4L1073.6,1016.1z">
<title>Missouri</title>
</path>
</svg>
