<svg version="1.1" xmlns="http://www.w3.org/2000/svg" xmlns:xlink="http://www.w3.org/1999/xlink" x="0px" y="0px"
	 viewBox="0 0 1200 1200" style="enable-background:new 0 0 1200 1200;" xml:space="preserve">
<path class="st0" d="M709.1,1166.4l27.6-44.5l19.1,8.5l72.1-20.1l22.3,3.2l15.9,8.5h55.1l4.2-17l-18-156.8l-29.7-201.3
	l10.6-477.9l-2.1-177l2.1-66.8l-50.9,3.2l-207.7,17l-137.8,4.2l-2.1,33.9l-29.7,13.8l-27.6,54l5.3,17l1.1,25.4l-30.7,11.7l-37.1,54
	l8.5,24.4l-31.8,26.5l-10.6,60.4l-6.4,20.1l17,26.5L331.9,432l15.9,29.7l3.2,44.5l-12.7,26.5l-2.1,9.5l4.2,53l21.2,47.7l-1.1,18
	l24.4,21.2l-7.4,32.9l-9.5,3.2l6.4,20.1l-91.1,159l-8.5,86.9l5.3,15.9l256.4-7.4l86.9-7.4l20.1-3.2l6.4,14.8l-10.6,75.2l35,35
	l23.3,67.8L709.1,1166.4z">
<title>Mississippi</title>
</path>
</svg>
