<svg version="1.1" xmlns="http://www.w3.org/2000/svg" xmlns:xlink="http://www.w3.org/1999/xlink" x="0px" y="0px"
	 viewBox="0 0 1200 1200" style="enable-background:new 0 0 1200 1200;" xml:space="preserve">
<path d="M1176.8,494.8l-34.9,375.9l-8.6,100l-388.9-43.4L422,880.6l-9.2,73.7l-12.5-11.2l-2.6-16.5l-8.6-12.5
	l-21.7,9.9l-4.6,16.5l-15.1,2l-25-10.5l-27,0.7l-15.8,4.6l-21.1-9.9l-19.7,1.3l-13.8,12.5l-5.9-3.9l-4.6-22.4l4.6-21.1l-17.8-21.1
	l-21.7-16.5l-16.5-82.9l-0.7-34.9l-10.5-5.3l-3.9,6.6l-29.6,21.1l-7.9-0.7l-15.1-18.4l-1.3-18.4l46.1-112.9l-3.9-17.6l-23-7.4
	l-2.6-6l-17.8-23L62.7,488l-21.1-10.4l-11.8-28l8.6-30.5l-21.1-49.8l29-140.1l215.2,45.3l121.1,22.4l212.5,34.9l192.8,26.3l192.1,23
	l202.7,20.2L1176.8,494.8z">
<title>Montana</title>
</path>
</svg>
