<svg version="1.1" xmlns="http://www.w3.org/2000/svg" xmlns:xlink="http://www.w3.org/1999/xlink" x="0px" y="0px"
	 viewBox="0 0 1200 1200" style="enable-background:new 0 0 1200 1200;" xml:space="preserve">
<path d="M919.9,1003.6l4.5-24.4l-1.8-21.7l-27.2-13.6l-58.8-18.1l-54.3-23.5l-5.4-3.6l-24.4-2.7l-18.1-13.6
	l-19-53.4l-29.9-4.5l-21.7-21.7L316.3,876l-286,54.3l-4.5-58.8l14.5-10.9l11.8-10l9.1-14.5l16.3-10L94.5,810l4.5-14.5l19-24.4
	l10-9.1l-1.8-9.1l-11.8-28.1l-16.3-1.8L81,667.9l26.2-16.3L147,638l36.2-11.8l29-4.5l57-1.8l17.2,11.8l14.5,1.8l19-11.8l23.5-10
	l47.1-4.5l19-16.3l16.3-29l14.5-17.2h19l17.2-10l1.8-20.8l-13.6-19l-2.7-13.6l10-19v-13.6h-16.3l-16.3-7.2l-7.2-10l-1.8-23.5
	l52.5-49.8l5.4-7.2l13.6-26.2l26.2-40.7l24.4-33.5l19-21.7l21.7-16.3l28.1-10.9L671,190l29,1.8l40.7-13.6l67-19.9l6.3,44.3
	l21.7,58.8l7.2,45.3l-9.1,38l23.5,40.7l7.2,18.1l-8.1,29l33.5,15.4l24.4,92.3v52.5l-5.4,98.6l7.2,48.9l6.3,32.6l13.6,66.1v73.3
	l-10,20.8l19,24.4l4.5,8.1l-17.2,16.3l2.7,11.8l11.8-2.7l13.6-11.8l20.8-23.5l10-5.4l14.5,5.4l20.8,1.8l71.5-35.3l26.2-24.4
	l11.8-13.6l38,14.5l-30.8,32.6l-35.3,26.2l-64.3,48l-23.5,9.1l-52.5,17.2l-36.2,10l-9.1-3.6L919.9,1003.6z">
<title>New York</title>
</path>
</svg>
