<svg version="1.1" xmlns="http://www.w3.org/2000/svg" xmlns:xlink="http://www.w3.org/1999/xlink" x="0px" y="0px"
	 viewBox="0 0 1200 1200" style="enable-background:new 0 0 1200 1200;" xml:space="preserve">
<path d="M372.9,840.8l2.1-31.7l57-27.5l35.9-59.2l35.9-50.7l69.7-67.6v-25.4l-128.9-86.6l-21.1-57l-57-6.3
	l-2.1-19l-14.8-46.5l46.5-23.2l4.2-61.3l-27.5-27.5l4.2-25.4l40.1-65.5V95.1l52.8-65.5l118.3,52.8l135.2,40.1l52.8,25.4l2.1,38
	L768,243l8.5,95.1L732,378.2l-23.2,21.1l10.6,10.6l57-6.3l23.2-16.9l33.8,71.8l4.2,198.6l12.7,23.2l-23.2,116.2l-65.5,137.3
	l-57,84.5l-16.9,101.4l-44.4,50.7h-16.9l-6.3-57l16.9-21.1l-4.2-31.7l-84.5-12.7l-101.4-48.6L379.2,938l-21.1-42.3L372.9,840.8z">
<title>New Jersey</title>
</path>
</svg>
