<svg version="1.1" xmlns="http://www.w3.org/2000/svg" xmlns:xlink="http://www.w3.org/1999/xlink" x="0px" y="0px"
	 viewBox="0 0 1200 1200" style="enable-background:new 0 0 1200 1200;" xml:space="preserve">
<path d="M840,963.6l20.6-60L810,881.1l-9.4-58.1l-76.9-20.6l-5.6-56.2L498.8,43.3l-13.1,1.5l-11.2,30l-11.2-9.4
	l-18.7-18.7l-28.1,35.6l-3.8,42.9l9.4,157.7l35.6,52.5v80.6l-73.1,90l-45,16.9v13.1l20.6,35.6v161.2l-15,172.5l-3.8,88.1l18.7,26.2
	l-3.8,88.1l-9.4,28.1l18.7,20.6l95.6-22.5l258.7-65.6l31.9-54.4l75-35.6L840,963.6z">
</path>
</svg>
