<svg version="1.1" id="Layer_1" xmlns="http://www.w3.org/2000/svg" xmlns:xlink="http://www.w3.org/1999/xlink" x="0px" y="0px"
	 viewBox="0 0 1200 1200" style="enable-background:new 0 0 1200 1200;" xml:space="preserve">
<path d="M741.7,785.7l-92.5-56.1l-22.6-5.8l-120.9,15.3L494,717.3l-20.4-16L352,704.9l-53.9,6.6l-67,32.8l-49.5,19.7l-47.3,8.7
	l-97.6,10.2l0.7-29.9l12.4-9.5l19.7-5.1l5.1-27.7l28.4-18.2l28.4-10.9l32.8-27l32.1-16.8l5.1-23.3l29.9-27.7l5.1,7.3l18.2,1.5
	l17.5-26.2l12.4-2.9l18.9,2.2l13.1-29.1l18.2-17.5l3.6-13.1l0.7-25.5l32.1,0.7l280.4-40.8l418.8-89.6l14.6,35l26.2,47.3l17.5,17.5
	l4.4,16.8l-17.5,1.5l5.8,4.4l-2.2,30.6l-18.9,9.5l-4.4,15.3l-9.5,21.1l-27,11.7l-17.5-2.2l-10.9-1.5l-11.7-9.5l2.2,9.5v7.3h13.8
	l5.8,9.5l-13.8,45.9h30.6l4.4,11.7l16.8-16.8l9.5-3.6l-13.8,26.2l-22.6,35h-9.5l-8-3.6l-19.7,4.4L977,694l-47.3,38.6l-24.8,34.2
	L891,814.2l-3.6,17.5l-34.2,3.6L816,846.2L741.7,785.7z M1100.8,594.9l18.9-18.2l23.3-18.9l10.9-4.4l1.5-14.6l-4.4-44.4l-10.9-16.8
	l-4.4-13.8l5.1-1.5l19.7,40.1l2.9,32.1l-1.5,24.8l-24.8,10.9l-20.4,17.5l-8,8.7L1100.8,594.9z">
<title>North Carolina</title>
</path>
</svg>
