<svg version="1.1" xmlns="http://www.w3.org/2000/svg" xmlns:xlink="http://www.w3.org/1999/xlink" x="0px" y="0px"
	 viewBox="0 0 1200 1200" style="enable-background:new 0 0 1200 1200;" xml:space="preserve">
<path d="M196,319.6l18.9,172.5l53.4,457.4l43.4-2.2l25.6-8.9l40.1,20l18.9,46.7l60.1,1.1l20,22.3h18.9l26.7-15.6l34.5,5.6l16.7,14.5
	l20-22.3l25.6-15.6l26.7-4.5l6.7,30l17.8,11.1l28.9,22.3l8.9,2.2l22.3-1.1l13.4-6.7v-23.4l18.9-16.7l1.1-53.4l12.2-46.7l21.1-14.5
	l11.1,7.8l11.1,12.2l7.8,2.2l4.5-4.5l-10-30v-24.5l12.2-15.6l27.8-40.1l14.5-16.7l24.5,5.6l23.4-16.7l33.4-36.7l24.5-41.2l2.2-60.1
	l5.6-55.6v-51.2l-13.4-35.6l13.4-20l14.5-13.4l-6.7-31.2l-47.9-284.9l-69,41.2L837,210.5l-37.8,41.2l-44.5,43.4l-35.6,8.9l-32.3,5.6
	l-61.2,28.9l-23.4,2.2l-37.8-34.5l-57.9,6.7l-28.9-16.7l-24.5-14.5L196,319.6z">
<title>Ohio</title>
</path>
</svg>
