<svg version="1.1" xmlns="http://www.w3.org/2000/svg" xmlns:xlink="http://www.w3.org/1999/xlink" x="0px" y="0px"
	 viewBox="0 0 1200 1200" style="enable-background:new 0 0 1200 1200;" xml:space="preserve">
<path d="M442.2,398.7l-13.8,185.7l-6.9,137.5l1.5,12.2l30.6,27.5l13,6.9h6.9l6.9-16l11.5,14.5l12.2,0.8l2.3-1.5
	l1.5-8.4l21.4,10.7l-3.1,26.7l29,3.8l19.1,7.6l32.1,4.6l17.6,12.2l19.1-13l26.7,5.3l16.8,23.7l9.2,0.8v17.6l16,5.3l19.1-16l13.8,4.6
	l20.6,0.8l5.3,17.6l33.6,13.8l13-2.3l14.5-32.1h9.9l8.4,16l32.1,6.1l26,9.9l22.9,6.1l12.2-5.3l5.3-20.6h34.4l14.5,6.9l20.6-14.5
	h10.7l4.6,10.7h27.5l15.3-13.8l17.6,4.6l13,16.8l22.9,13l26,6.9l14.5,9.2l-2.3-287.3l-10.7-83.3l-0.8-65.7l-11.5-50.4l-4.6-52
	l0.8-32.9l-96.3,2.3l-353.8-3.8l-341.5-16L32.7,298.6l-3.1,81.8L442.2,398.7z">
<title>Oklahoma</title>
</path>
</svg>
