<svg version="1.1" xmlns="http://www.w3.org/2000/svg" xmlns:xlink="http://www.w3.org/1999/xlink" x="0px" y="0px"
	 viewBox="0 0 1200 1200" style="enable-background:new 0 0 1200 1200;" xml:space="preserve">
<path d="M79.5,386.5l14.8-5.7l64.9-62.6l8,78.6l381.5-74L969,233.9l26.2,26.2l35.3,4.6l22.8,63.8l27.3,21.6l31.9,4.6l1.1,1.1
	l-29.6,36.4v35.3l-21.6,35.3l-2.3,21.6l14.8,14.8l-2.3,21.6l-27.3,12.5l11.4,38.7l2.3,12.5l31.9,3.4l10.2,28.5l67.2,44.4v4.6
	l-35.3,34.2l-17.1,25.1l-19.4,31.9l-30.7,13.7l-15.9,3.4l-23.9,14.8l-18.2,15.9l-255.1,49l-440.7,88.8l-128.7,15.9l-44.4,8L80.7,711
	l-49-295L79.5,386.5z">
<title>Pennsylvania</title>
</path>
</svg>
