<svg version="1.1" xmlns="http://www.w3.org/2000/svg" xmlns:xlink="http://www.w3.org/1999/xlink" x="0px" y="0px"
	 viewBox="0 0 1200 1200" style="enable-background:new 0 0 1200 1200;" xml:space="preserve">
<path d="M687,1019.7l-26.5-12.6l-23.9-70.6l-31.5-29l-31.5-6.3l-18.9-58l-37.8-81.9l-52.9-22.7L439.9,716
	l-15.1-32.8L394.6,658l-29-16.4L337.9,605l-40.3-30.2l-55.5-21.4l-5-17.6l-29-35.3l-6.3-18.9l-47.9-68.1l-42.9,1.3l-49.2-31.5
	l-15.1-15.1l-2.5-17.6l7.6-20.2l34-16.4l-10.1-25.2l80.7-34l116-56.7l89.5-11.3l206.7-6.3l29,23.9l22.7,44.1l58-10.1l158.8-18.9
	l34,10.1l157.5,93.3l127.3,104.6l-66.8,68.1l-32.8,76.9l-6.3,79.4l-20.2,10.1l-13.9,34l-30.2,7.6l-26.5,45.4l-34,34l-29,42.9
	L876,835.7l-45.4,42.9l-36.5,2.5l12.6,40.3l-63,66.8l-29,20.2L687,1019.7z">
</path>
</svg>
