<svg version="1.1" xmlns="http://www.w3.org/2000/svg" xmlns:xlink="http://www.w3.org/1999/xlink" x="0px" y="0px"
	 viewBox="0 0 1200 1200" style="enable-background:new 0 0 1200 1200;" xml:space="preserve">
<path d="M1125.9,762.5l-8.1,29l3.6,27.2l23.5,18.1l-10.9,48.9l-16.3,37.1l13.6,29.9l6.3,10l-11.8,0.9l-6.3-14.5
	l-5.4-18.1l-29.9-16.3l-43.4-13.6l-22.6-11.8l-26.2,0.9l-35.3,3.6l-34.4,10.9l-48-34.4l-24.4-21.7l-98.7,7.2L375.5,834L53.3,814.1
	l13.6-224.5l25.3-307.8l3.6-45.3l515,35.3l515,15.4v24.4l-11.8,13.6l-18.1,13.6l-0.9,19.9l10,19.9l37.1,30.8l4.5,24.4v325
	L1125.9,762.5z">
<title>South Dakota</title>
</path>
</svg>
