<svg version="1.1" xmlns="http://www.w3.org/2000/svg" xmlns:xlink="http://www.w3.org/1999/xlink" x="0px" y="0px"
	 viewBox="0 0 1200 1200" style="enable-background:new 0 0 1200 1200;" xml:space="preserve">
<path d="M702.8,745.9L600,755.4l-182.8,17.3l-295,21.2l-92.6,3.1l7.1-4.7l7.1-35.3l-9.4-28.2l30.6-18L68,691
	l9.4-33.7l23.5-74.5l3.9-43.9l2.4-1.6l96.5-1.6l106.7-6.3l0.8-30.6l27.5-0.8l238.5-25.9l423.7-40.8l80.8-11.8l59.6-1.6l18.8-14.9
	l10.2,2.4l-0.8,25.9l-3.1,12.6l-18.8,17.3l-12.6,28.2l-15.7-3.1l-18.8,7.1l-17.3,25.9l-11-1.6l-6.3-9.4l-8.6,3.1l-33.7,31.4
	l-6.3,24.3l-33,17.3l-33.7,28.2l-29.8,11.8l-34.5,22l-4.7,28.2l-19.6,3.9l-15.7,13.3l-1.6,37.7L702.8,745.9z">
<title>Tennessee</title>
</path>
</svg>
