<svg version="1.1" xmlns="http://www.w3.org/2000/svg" xmlns:xlink="http://www.w3.org/1999/xlink" x="0px" y="0px"
	 viewBox="0 0 1200 1200" style="enable-background:new 0 0 1200 1200;" xml:space="preserve">
<path d="M90.8,487.3l155,15.1l122.8,8l31-409.3l227.9,10.1l-7.1,97.6l-4.2,75.4l0.8,8.4l18.4,17.2l8.4,4.6h7.5l2.1-5l2.9,3.8
	l10.1,0.8l4.6-2.5v-0.8l4.2,2.1l-1.7,15.5l18.9,2.9l10.1,3.8l17.6,2.9l10.9,7.5l11.7-8l11.3,2.5l9.2,13l3.4,0.4v8.8l13.8,4.6
	l10.5-8.8l6.3,2.1l8.8,0.4l2.5,8.8l21.8,8.4l9.6-2.1l8-16.8h0.4l4.6,8l19.3,3.8l14.2,5.4l13.4,4.2l10.1-5l2.9-9.6h15.1l8.8,4.2
	l12.6-8.4h1.7l2.1,5.9h19.7l8-7.5l5.4,1.7l7.1,8.8l13.8,8l14.2,4.2l10.5,5.9l11.3,8.4l13-5l8.8,3.4l2.9,83.8l2.9,39.8l2.5,17.2
	l10.9,18.4l3.8,18.9l17.6,24.7l1.3,13l2.5,3.4l-2.9,32.3l-12.1,20.1l5.4,10.9l-2.1,10.1l-3.4,30.2l-5.4,12.6l1.3,17.6l-23.5,6.7
	L1025,773l-4.2,8l-10.9,8l-8.8,6.3l-5.4,3.4l-23.9,22.2l-11.3,8.8L938.3,843L914.4,853L888,867.3l-7.5,6.3l-24.3,15.1l-14.2,2.5
	l-16.3,23l-16.8,1.3l-4.2,8l9.6,8l-6.3,23l-5.4,18.9l-4.6,16.3l-3.4,18.9l3.4,10.1l7.5,29.3l4.2,25.6l7.5,11.3l-4.2,6.3l-13,8
	l-23.9-16.3l-23-4.6l-5.4,2.1l-13.4-2.5l-17.6-13l-21.8-4.6l-31.8-14.2l-8.8-16.3l-5.4-27.2l-13.4-8l-2.5-9.6l2.5-2.5l1.3-14.2
	l-5.4-2.5l-2.5-4.2l5.4-18.4l-6.7-9.6l-13.4-5.4l-14.2-18.4l-15.1-27.7l-17.6-10.9l0.8-8l-22.2-51.5l-3.4-17.6l-7.5-8l-0.8-6.3
	l-25.1-22.2l-10.9-13v-4.6l-10.9-8.8l-28.5-4.6l-31-2.5l-13-9.6l-18.9,7.5l-15.1,6.3l-9.6,13.4l-4.2,15.5l-18.4,25.6l-10.1,10.1
	l-10.9-4.2l-7.5-4.6l-8-2.5l-16.3-9.6v-2.5l-7.5-8l-21.8-8.8l-31-32.7l-9.6-19.7v-33.9l-13.4-27.2l-2.1-11.3l-6.7-4.2l-4.6-8.8
	l-20.9-8.8l-5.4-6.7l-29.7-33.1l-5.4-13.4l-19.7-9.6l-6.3-18.4L100.4,512l-7.1-2.1L90.8,487.3z M821.4,1081l-2.5-29.7l-11.3-30.2
	l-2.5-29.3l6.3-34.4l13.8-28.9l14.7-22.6l13.4-15.1l2.5,0.8l-20.1,27.7l-18.4,27.2l-8.4,27.7l-1.3,21.8l3.8,25.6l10.9,30.2l2.1,21.8
	l0.8,6.3L821.4,1081z"/>
</svg>
