<svg version="1.1" xmlns="http://www.w3.org/2000/svg" xmlns:xlink="http://www.w3.org/1999/xlink" x="0px" y="0px"
	 viewBox="0 0 1200 1200" style="enable-background:new 0 0 1200 1200;" xml:space="preserve">
<path d="M1172,452.1l-1.7,24.1l-25,32.8l-3.4,39.7l4.3,29.3l-15.5,43.1l-19,16.4l-12.9-39.7l3.4-46.6l13.8-36.2l6-28.4l-0.9-14.7
	L1172,452.1z M652.2,836.7l-332.8,48.3l-41.4-0.9l-19-2.6l-21.6,16.4l-62.9,0.9l-88.8,13.8L28,917.7l35.3-22.4l35.3-19.8v-18.1
	l49.1-62.9l35.3-31.9l19-21.6l31,37.1l32.8,7.8l23.3-8.6l17.2-12.9l20.7,10.3l39.7-11.2l14.7-37.9l20.7,6l27.6-19.8l13.8,3.4
	l24.1-27.6l1.7-23.3l-6.9-10.3l41.4-90.5l15.5-44.8l4.3-40.5l6-1.7l9.5,14.7l12.9,10.3l33.6-1.7l14.7-69.8l25.9-5.2l6.9-22.4
	l24.1-19l9.5-18.1l15.5-37.1l0.9-39.7l31,12.1l56.9,26.7l2.6-44.8l29.3,10.3l-5.2,25l74.1,26.7l12.1,15.5l-6.9,28.4L866,399.6
	l-4.3,14.7l4.3,20.7l17.2,11.2l33.6,12.1l25,8.6l42.2,7.8l19,18.1l27.6,3.4l7.8,10.3l-3.4,40.5l12.1,9.5l-4.3,16.4l10.3,6.9
	l-1.7,12.1l-23.3-0.9l0.9,13.8l19.8,12.9l0.9,12.1l15.5,15.5l4.3,21.6l-22.4,12.1l13.8,12.9l50-14.7l31.9,53.5L652.2,836.7z"/>
</svg>
