<?xml version="1.0" encoding="utf-8"?>
<svg xmlns="http://www.w3.org/2000/svg" xmlns:xlink="http://www.w3.org/1999/xlink" x="0px" y="0px"
	 viewBox="0 0 1200 1200" style="enable-background:new 0 0 1200 1200;" xml:space="preserve">
<title>Washington</title>
<path d="M191,785.1L168.5,743l-40.2-6.9l-3.9-23.5l-24.5-5.9l-28.4-4.9l-17.6,9.8l-22.5-28.4l2.9-28.4l26.4-2.9
	l15.7-39.2l-25.5-10.8l2-36.2l43.1-5.9l-26.4-26.4l-14.7-69.5l5.9-28.4V358l-17.6-31.3l22.5-92.1l20.6,4.9l23.5,28.4l26.4,25.5
	l31.3,18.6l44.1,20.6l30.4,5.9l28.4,14.7l33.3,9.8l22.5-2v-23.5l12.7-10.8l20.6-12.7l2.9,10.8l2.9,17.6l-22.5,4.9l-2.9,20.6
	l17.6,14.7l10.8,23.5l5.9,18.6l14.7-2l2-12.7l-9.8-12.7l-4.9-31.3l7.8-17.6l-5.9-14.7V308l17.6-35.3L385,247.3l-23.5-47l2.9-7.8
	l13.7-7.8l43.1,14.7l95,26.4l84.2,18.6l195.9,55.8l225.3,55.8l146.9,34.2l-47,172l-44.1,204l-33.3,159.2l-3.9,89.9L914,978.9
	l-149.9-34l-142,3.1l-10.8-15l-55.8,20.5l-38.2-4.1l-25.5-17.5l-16.7,6.4l-40.7-2.4l-16.8-12.9l-50.5-17.8l-11.6-1.6l-47-13.6
	l-18.8,16.2l-55.3-2.4l-45.2-32.8L191,785.1z M285.1,242.4l19.6-2l4.9,13.7l14.7-15.7h22.5l7.8,14.7l-14.7,16.7l5.9,7.8l-6.9,19.6
	l-13.7,3.9c0,0-8.8,1-8.8-2s14.7-25.5,14.7-25.5l-16.7-5.9l-2.9,14.7l-6.9,5.9L290,265.9L285.1,242.4z">
</path>
</svg>
