<svg version="1.1" xmlns="http://www.w3.org/2000/svg" xmlns:xlink="http://www.w3.org/1999/xlink" x="0px" y="0px"
	 viewBox="0 0 1200 1200" style="enable-background:new 0 0 1200 1200;" xml:space="preserve">
<path d="M742.6,467.7l79.9-82.7l35.8-11l22-20.7l20.7-30.3l15.2,4.1l42.7-2.8l63.4-49.6l20.7-6.9l17.9,13.8
	l35.8,16.5l41.3,41.3l-5.5,59.2l-74.4-35.8L992,338.2l-1.4,81.3L954.8,498l-40,33.1l-11,31.7l-41.3,6.9L839,681.3l-38.6,2.8
	l-15.2-13.8l-16.5-27.6l-30.3,6.9l-6.9,70.3l-24.8,70.3l-68.9,151.5l12.4,19.3l-1.4,27.6l-30.3,34.4l-22-5.5l-42.7,31.7l-38.6-11
	l-24.8,67.5l-52.4,13.8l-34.4-17.9l-34.4,26.2l-31.7,9.6l-44.1-11l-52.4-62l-48.2-30.3l-34.4-34.4l-40-51l-6.9-31.7L73,893.5
	l-8.3-17.9L62,798.4l4.1,1.4l33.1-2.8l24.8-13.8v-30.3l23.4-20.7l1.4-71.6l12.4-49.6l15.2-9.6l5.5,4.1l13.8,15.2l23.4,6.9l15.2-17.9
	l-13.8-42.7v-22l42.7-63.4l16.5-17.9l27.6,6.9l35.8-24.8l42.7-46.8l33.1-56.5l2.8-77.2l6.9-66.1v-67.5l-15.2-41.3l12.4-17.9l11-9.6
	L496,328.6l59.2-11l154.3-17.9L742.6,467.7z">
<title>West Virginia</title>
</path>
</svg>
