<svg version="1.1" xmlns="http://www.w3.org/2000/svg" xmlns:xlink="http://www.w3.org/1999/xlink" x="0px" y="0px"
	 viewBox="0 0 1200 1200" style="enable-background:new 0 0 1200 1200;" xml:space="preserve">
<path d="M186,111.6l33.7,5.8l33.7-7l86-37.2L373,51.2l24.4-9.3l22.1,17.4l-12.8,12.8l-22.1,36l-7,22.1l11.6,7l20.9-11.6l12.8-2.3
	l31.4,9.3l7,12.8l12.8,2.3l7-12.8l46.5,61.6l95.2,13.9l95.2,25.6l30.2,12.8L891,278.8l18.6,26.7l41.8,13.9L971.2,438l18.6,16.3
	l17.4,10.5l-12.8,26.7L973.5,510l-24.4,54.6L934,592.5l2.3,20.9l17.4,3.5l12.8-22.1l17.4-9.3l9.3-26.7l22.1-20.9l31.4-46.5
	l48.8-73.2l9.3-5.8l3.5,11.6l-2.3,26.7l-33.7,79l-31.4,66.2l-5.8,37.2l-7,30.2l9.3,15.1l-2.3,31.4l-22.1,27.9l-5.8,20.9l7,41.8
	l7,39.5l-17.4,30.2l-9.3,33.7l-11.6,36l12.8,27.9l7,70.9l18.6,52.3l-2.3,34.8l-184.7,20.9l-203.3,11.6H483.3l-8.1-17.4l-33.7-4.6
	l-30.2-15.1l-26.7-43l-3.5-41.8l23.2-33.7l-5.8-16.3l-24.4-25.6l-9.3-38.3l-7-79l-24.4-29L252.2,762L208,699.3l-39.5-11.6L143,655.2
	h-37.2l-33.7-38.3l-5.8-75.5l1.2-44.1l17.4-36L75.6,424l-29-32.5l20.9-62.7l60.4-44.1l18.6-22.1l-2.3-94.1l2.3-32.5l27.9-32.5
	L186,111.6z"/>
</svg>
